<svg xmlns="http://www.w3.org/2000/svg" viewBox="0 0 128 128">
  <defs>
    <linearGradient id="pp-stroke" x1="0" y1="1" x2="1" y2="0">
      <stop offset="0" stop-color="#4FC3F7"/>
      <stop offset="0.5" stop-color="#AB47BC"/>
      <stop offset="1" stop-color="#FFB300"/>
    </linearGradient>
    <linearGradient id="pp-handle" x1="0" y1="0" x2="1" y2="1">
      <stop offset="0" stop-color="#8D6E63"/>
      <stop offset="1" stop-color="#5D4037"/>
    </linearGradient>
  </defs>
  <rect x="4" y="4" width="120" height="120" rx="26" fill="#131A2C"/>
  <rect x="4" y="4" width="120" height="120" rx="26" fill="none" stroke="#2B3854" stroke-width="2"/>
  <path d="M26 88 C 46 62, 74 46, 102 34" fill="none" stroke="url(#pp-stroke)" stroke-width="13" stroke-linecap="round"/>
  <path d="M108 18 l2.4 6.2 6.2 2.4 -6.2 2.4 -2.4 6.2 -2.4 -6.2 -6.2 -2.4 6.2 -2.4 Z" fill="#FFE082"/>
  <g transform="rotate(-45 34 96)">
    <path d="M34 82 L40 96 L28 96 Z" fill="#ECEFF1"/>
    <rect x="28" y="96" width="12" height="7" rx="2" fill="#B0BEC5"/>
    <rect x="31" y="103" width="6" height="24" rx="3" fill="url(#pp-handle)"/>
  </g>
</svg>
