<?xml version="1.0" encoding="UTF-8"?><svg id="Layer_1" xmlns="http://www.w3.org/2000/svg" viewBox="0 0 240.21 159.97"><defs><style>.cls-1{fill:#2ebbf3;}.cls-2{fill:#eaf5fd;}.cls-3{fill:#0b2a33;}.cls-4{fill:#269bc0;}</style></defs><rect class="cls-3" x="0" y="41.06" width="135.85" height="77.86" rx="24.22" ry="24.22"/><path class="cls-3" d="M232.47,93.99l-100.94,63.42c-11.02,6.92-25.35-1-25.35-14.01V16.57c0-13.01,14.33-20.93,25.35-14.01l100.94,63.42c10.32,6.49,10.32,21.53,0,28.02Z"/><rect class="cls-4" x="9.22" y="48.55" width="128.56" height="60.88" rx="24.22" ry="24.22"/><path class="cls-4" d="M228.43,86.86l-99.58,61.15c-5.95,3.66-13.61-.63-13.61-7.61V18.09c0-6.99,7.66-11.27,13.61-7.61l99.58,61.15c5.68,3.49,5.68,11.74,0,15.23Z"/><rect class="cls-1" x="9.22" y="54.56" width="126.43" height="55.52" rx="24.22" ry="24.22"/><path class="cls-1" d="M217.78,92.86l-88.97,56.58c-5.95,3.78-13.73-.49-13.73-7.54V28.75c0-7.05,7.78-11.32,13.73-7.54l88.97,56.58c5.52,3.51,5.52,11.57,0,15.08Z"/><rect class="cls-2" x="44.63" y="92.84" width="44.04" height="8.96" rx="2.8" ry="2.8"/><rect class="cls-2" x="33.6" y="92.84" width="7.89" height="8.96" rx="2.8" ry="2.8"/></svg>