<?xml version="1.0" encoding="UTF-8"?><svg id="Layer_1" xmlns="http://www.w3.org/2000/svg" viewBox="0 0 500 550"><defs><style>.cls-1{fill:#7498b2;}.cls-1,.cls-2{stroke:#f6ffbf;stroke-miterlimit:10;stroke-width:6px;}.cls-2{fill:#f6ffbf;}</style></defs><path class="cls-1" d="M4.98,49.49c1.94-.02,2.75,1.33,3.97,2.45,47.22,43.41,93.09,92.71,138.94,138.02,26.78,26.46,60.87,55.48,84.6,84.05.57,2.59-.03,2.69-1.24,4.34-8.45,11.47-26.87,24.21-36.84,35.23l-24.24,25.71c-.33.33-.66.66-.99.99-1,.99-1.98,1.99-2.97,2.97-3.3,3.27-6.58,6.61-9.89,9.89-4.75,2.05-9.42,7.38-11.87,11.87-.99.98-1.97,1.98-2.97,2.97l-34.62,34.62c-23.59,23.24-47.61,46.04-71.22,69.24l-25.72,25.72c-.34.32-.65.67-.99.99-1.63,1.31-3.04,2.62-4.95.99-.27-1.12.65-3.26-.99-3.96V55.42c1.9-1.55,1.51-3.95,1.98-5.93Z"/><path class="cls-1" d="M352.19,393.69c-84.52,48.17-169.24,96.03-253.56,144.58-6.5,3.71-13.41,6.27-20.45,8.73h-27.7c-4.94-2.82-10.36-3.99-15.5-6.76-15.83-8.51-25.09-21.74-30-38.74,2.5.23,2.88-1.98,3.96-2.97.34-.32.65-.67.99-.99,8.88-8.35,17.06-17.21,25.72-25.72,23.61-23.19,47.64-45.99,71.22-69.24,11.62-11.45,23.02-23.16,34.62-34.62,1-.99,1.98-1.99,2.97-2.97,3.97-3.92,7.89-7.94,11.87-11.87,3.32-3.28,6.59-6.62,9.89-9.89l2.97-2.97c.33-.33.66-.66.99-.99,21.36-21.16,43.52-41.54,64.3-63.3h.99l116.72,117.7Z"/><path class="cls-1" d="M73.23,3l14.09,4.21c88.93,49.11,176.73,100.5,264.86,151.08l-116.72,117.7h-.99c-.68-.63-1.38-1.26-1.98-1.98-23.73-28.56-57.82-57.59-84.6-84.05C102.04,144.65,56.17,95.35,8.95,51.94c-1.22-1.12-2.03-2.48-3.97-2.45C10.92,24.48,31.06,8.67,55.43,3h17.81Z"/><path class="cls-2" d="M352.19,393.69l-116.72-117.7,116.72-117.7c32.39,18.58,65.51,36.12,97.61,55.22,20.56,12.23,38.79,21.34,45.12,46.87,7.57,30.54-5.99,54.33-31.27,70.18-35.39,22.2-74.94,42.32-111.46,63.13Z"/></svg>